<?xml version="1.0" encoding="UTF-8" standalone="no"?>
<!-- Created with Inkscape (http://www.inkscape.org/) -->

<svg
   xmlns:dc="http://purl.org/dc/elements/1.1/"
   xmlns:cc="http://creativecommons.org/ns#"
   xmlns:rdf="http://www.w3.org/1999/02/22-rdf-syntax-ns#"
   xmlns:svg="http://www.w3.org/2000/svg"
   xmlns="http://www.w3.org/2000/svg"
   xmlns:sodipodi="http://sodipodi.sourceforge.net/DTD/sodipodi-0.dtd"
   xmlns:inkscape="http://www.inkscape.org/namespaces/inkscape"
   width="35.077358mm"
   height="24.030493mm"
   viewBox="0 0 124.28985 85.147415"
   id="svg11930"
   version="1.1"
   inkscape:version="0.91 r13725"
   inkscape:export-filename="/home/sardylan/develop/ham/qcw/wiki/images/analog-input.png"
   inkscape:export-xdpi="300"
   inkscape:export-ydpi="300"
   sodipodi:docname="analog-input.svg">
  <defs
     id="defs11932" />
  <sodipodi:namedview
     id="base"
     pagecolor="#ffffff"
     bordercolor="#666666"
     borderopacity="1.0"
     inkscape:pageopacity="0.0"
     inkscape:pageshadow="2"
     inkscape:zoom="0.35"
     inkscape:cx="-433.56936"
     inkscape:cy="42.573708"
     inkscape:document-units="mm"
     inkscape:current-layer="layer1"
     showgrid="false"
     fit-margin-top="0"
     fit-margin-left="0"
     fit-margin-right="0"
     fit-margin-bottom="0"
     inkscape:window-width="1920"
     inkscape:window-height="1032"
     inkscape:window-x="0"
     inkscape:window-y="0"
     inkscape:window-maximized="1" />
  <metadata
     id="metadata11935">
    <rdf:RDF>
      <cc:Work
         rdf:about="">
        <dc:format>image/svg+xml</dc:format>
        <dc:type
           rdf:resource="http://purl.org/dc/dcmitype/StillImage" />
        <dc:title></dc:title>
      </cc:Work>
    </rdf:RDF>
  </metadata>
  <g
     inkscape:label="Layer 1"
     inkscape:groupmode="layer"
     id="layer1"
     transform="translate(-312.85507,-489.7885)">
    <g
       transform="matrix(0.00899999,0,0,0.00899999,-67.934505,374.32229)"
       style="fill:#840000;fill-opacity:0;stroke:#840000;stroke-width:60;stroke-linecap:round;stroke-linejoin:round;stroke-opacity:1"
       id="g9254">
      <rect
         x="42600"
         y="16500"
         width="800"
         height="2000"
         rx="0"
         id="rect9256" />
    </g>
    <g
       transform="matrix(0.00899999,0,0,0.00899999,-67.934505,374.32229)"
       style="fill:#840000;fill-opacity:1;stroke:#840000;stroke-width:60;stroke-linecap:round;stroke-linejoin:round;stroke-opacity:1"
       id="g9258">
      <polyline
         style="fill-rule:evenodd"
         points="43400,17500 43600,17300 43600,17700 "
         id="polyline9260" />
    </g>
    <g
       transform="matrix(0.00899999,0,0,0.00899999,-67.934505,374.32229)"
       style="fill:#840000;fill-opacity:0;stroke:#840000;stroke-width:60;stroke-linecap:round;stroke-linejoin:round;stroke-opacity:1"
       id="g9262">
      <path
         inkscape:connector-curvature="0"
         d="m 43000,16500 0,-500"
         id="path9264" />
      <path
         inkscape:connector-curvature="0"
         d="m 42880,16140 0,220"
         id="path9266" />
      <path
         inkscape:connector-curvature="0"
         d="m 42880,16250 -400,0 60,40 40,40 20,30"
         id="path9268" />
      <path
         inkscape:connector-curvature="0"
         d="m 43500,17500 1000,0"
         id="path9270" />
      <path
         inkscape:connector-curvature="0"
         d="m 43890,17020 20,-20 30,-20 100,0 40,20 20,20 10,40 0,40 -10,50 -230,230 240,0"
         id="path9272" />
      <path
         inkscape:connector-curvature="0"
         d="m 43000,18500 0,500"
         id="path9274" />
      <path
         inkscape:connector-curvature="0"
         d="m 42480,18880 0,-240 150,130 0,-60 20,-40 20,-20 40,-10 90,0 40,10 20,20 20,40 0,120 -20,30 -20,20"
         id="path9276" />
    </g>
    <g
       transform="matrix(0.00899999,0,0,0.00899999,-67.934505,374.32229)"
       style="fill:#008484;fill-opacity:0;stroke:#008484;stroke-width:60;stroke-linecap:round;stroke-linejoin:round;stroke-opacity:1"
       id="g9278">
      <path
         inkscape:connector-curvature="0"
         d="m 42850,18020 340,0"
         id="path9280" />
      <path
         inkscape:connector-curvature="0"
         d="m 42660,18140 360,110 0,-300"
         id="path9282" />
      <path
         inkscape:connector-curvature="0"
         d="m 43140,17750 20,-20 30,20 -30,20 -20,-20 50,0"
         id="path9284" />
      <path
         inkscape:connector-curvature="0"
         d="m 42690,17560 0,-330 500,210"
         id="path9286" />
      <path
         inkscape:connector-curvature="0"
         d="m 43190,17030 -500,0"
         id="path9288" />
      <path
         inkscape:connector-curvature="0"
         d="m 43190,16750 -290,210"
         id="path9290" />
      <path
         inkscape:connector-curvature="0"
         d="m 42690,16750 280,280"
         id="path9292" />
    </g>
    <g
       transform="matrix(0.00899999,0,0,0.00899999,-67.934505,374.32229)"
       style="fill:#840000;fill-opacity:0;stroke:#840000;stroke-width:60;stroke-linecap:round;stroke-linejoin:round;stroke-opacity:1"
       id="g9298">
      <polyline
         fill="none;"
         points="43000,20500 43000,21000 43500,21000 43000,21500 42500,21000 43000,21000 "
         id="polyline9300" />
    </g>
    <g
       transform="matrix(0.00899999,0,0,0.00899999,-67.934505,374.32229)"
       style="fill:#008484;fill-opacity:0;stroke:#008484;stroke-width:60;stroke-linecap:round;stroke-linejoin:round;stroke-opacity:1"
       id="g9302">
      <path
         inkscape:connector-curvature="0"
         d="m 42620,21780 -50,-20 -70,0 -70,20 -50,50 -20,50 -20,90 0,70 20,100 20,40 50,50 70,30 50,0 70,-30 20,-20 0,-170 -90,0"
         id="path9304" />
      <path
         inkscape:connector-curvature="0"
         d="m 42860,22260 0,-500 280,500 0,-500"
         id="path9306" />
      <path
         inkscape:connector-curvature="0"
         d="m 43380,22260 0,-500 120,0 70,20 50,50 20,50 20,90 0,70 -20,100 -20,40 -50,50 -70,30 -120,0"
         id="path9308" />
    </g>
    <g
       transform="matrix(0.00899999,0,0,0.00899999,-67.934505,374.32229)"
       style="fill:#840000;fill-opacity:0;stroke:#840000;stroke-width:60;stroke-linecap:round;stroke-linejoin:round;stroke-opacity:1"
       id="g9314">
      <polyline
         fill="none;"
         points="42700,14000 43000,13500 "
         id="polyline9316" />
      <polyline
         fill="none;"
         points="43000,14500 43000,13500 "
         id="polyline9318" />
      <polyline
         fill="none;"
         points="43000,13500 43300,14000 "
         id="polyline9320" />
    </g>
    <g
       transform="matrix(0.00899999,0,0,0.00899999,-67.934505,374.32229)"
       style="fill:#008484;fill-opacity:0;stroke:#008484;stroke-width:60;stroke-linecap:round;stroke-linejoin:round;stroke-opacity:1"
       id="g9322">
      <path
         inkscape:connector-curvature="0"
         d="m 42360,13170 380,0"
         id="path9324" />
      <path
         inkscape:connector-curvature="0"
         d="m 42550,13360 0,-380"
         id="path9326" />
      <path
         inkscape:connector-curvature="0"
         d="m 43220,12860 -240,0 -20,230 20,-20 50,-20 120,0 40,20 30,20 20,50 0,120 -20,50 -30,20 -40,30 -120,0 -50,-30 -20,-20"
         id="path9328" />
      <path
         inkscape:connector-curvature="0"
         d="m 43390,12860 160,500 170,-500"
         id="path9330" />
    </g>
    <g
       transform="matrix(0.00899999,0,0,0.00899999,-67.934505,374.32229)"
       style="fill:#840000;fill-opacity:0;stroke:#840000;stroke-width:60;stroke-linecap:round;stroke-linejoin:round;stroke-opacity:1"
       id="g9332">
      <path
         inkscape:connector-curvature="0"
         d="m 46770,17600 290,0"
         id="path9334" />
      <path
         inkscape:connector-curvature="0"
         d="m 46720,17770 200,-600 200,600"
         id="path9336" />
      <path
         inkscape:connector-curvature="0"
         d="m 47310,17770 0,-600 350,600 0,-600"
         id="path9338" />
      <path
         inkscape:connector-curvature="0"
         d="m 47910,17600 290,0"
         id="path9340" />
      <path
         inkscape:connector-curvature="0"
         d="m 47860,17770 200,-600 200,600"
         id="path9342" />
      <path
         inkscape:connector-curvature="0"
         d="m 48740,17770 -290,0 0,-600"
         id="path9344" />
      <path
         inkscape:connector-curvature="0"
         d="m 49060,17170 110,0 60,30 60,60 20,110 0,200 -20,120 -60,50 -60,30 -110,0 -60,-30 -60,-50 -30,-120 0,-200 30,-110 60,-60 60,-30"
         id="path9346" />
      <path
         inkscape:connector-curvature="0"
         d="m 49890,17200 -60,-30 -90,0 -80,30 -60,60 -30,50 -30,120 0,80 30,120 30,60 60,50 80,30 60,0 90,-30 30,-30 0,-200 -120,0"
         id="path9348" />
      <path
         inkscape:connector-curvature="0"
         d="m 50170,17540 460,0"
         id="path9350" />
      <path
         inkscape:connector-curvature="0"
         d="m 50910,17770 0,-600"
         id="path9352" />
      <path
         inkscape:connector-curvature="0"
         d="m 51200,17770 0,-600 350,600 0,-600"
         id="path9354" />
      <path
         inkscape:connector-curvature="0"
         d="m 51830,17770 0,-600 230,0 60,30 30,30 30,60 0,80 -30,60 -30,30 -60,30 -230,0"
         id="path9356" />
      <path
         inkscape:connector-curvature="0"
         d="m 52430,17170 0,490 30,50 30,30 60,30 110,0 60,-30 30,-30 30,-50 0,-490"
         id="path9358" />
      <path
         inkscape:connector-curvature="0"
         d="m 52980,17170 340,0"
         id="path9360" />
      <path
         inkscape:connector-curvature="0"
         d="m 53150,17770 0,-600"
         id="path9362" />
      <path
         inkscape:connector-curvature="0"
         d="m 53520,17540 460,0"
         id="path9364" />
      <path
         inkscape:connector-curvature="0"
         d="m 54260,17770 0,-600 230,0 60,30 30,30 30,60 0,80 -30,60 -30,30 -60,30 -230,0"
         id="path9366" />
      <path
         inkscape:connector-curvature="0"
         d="m 54860,17770 0,-600"
         id="path9368" />
      <path
         inkscape:connector-curvature="0"
         d="m 55150,17770 0,-600 350,600 0,-600"
         id="path9370" />
    </g>
    <g
       transform="matrix(0.00899999,0,0,0.00899999,-67.934505,374.32229)"
       style="fill:#840000;fill-opacity:0;stroke:#840000;stroke-width:100;stroke-linecap:round;stroke-linejoin:round;stroke-opacity:1"
       id="g9372">
      <polyline
         fill="none;"
         points="46500,17500 46500,18040 55770,18040 56070,17500 55770,16960 46500,16960 46500,17500 "
         id="polyline9374" />
    </g>
    <g
       transform="matrix(0.00899999,0,0,0.00899999,-67.934505,374.32229)"
       style="fill:#008400;fill-opacity:0;stroke:#008400;stroke-width:60;stroke-linecap:round;stroke-linejoin:round;stroke-opacity:1"
       id="g9378">
      <path
         inkscape:connector-curvature="0"
         d="m 44500,17500 2000,0"
         id="path9380" />
      <path
         inkscape:connector-curvature="0"
         d="m 43000,16000 0,-1500"
         id="path9382" />
      <path
         inkscape:connector-curvature="0"
         d="m 43000,19000 0,1500"
         id="path9384" />
    </g>
  </g>
</svg>
