<?xml version="1.0" encoding="UTF-8" standalone="no"?>
<svg
   xmlns:dc="http://purl.org/dc/elements/1.1/"
   xmlns:cc="http://creativecommons.org/ns#"
   xmlns:rdf="http://www.w3.org/1999/02/22-rdf-syntax-ns#"
   xmlns:svg="http://www.w3.org/2000/svg"
   xmlns="http://www.w3.org/2000/svg"
   version="1.1"
   id="svg5949"
   viewBox="0 0 85.861635 224.64726"
   height="63.400448mm"
   width="24.232061mm">
  <defs
     id="defs5951" />
  <metadata
     id="metadata5954">
    <rdf:RDF>
      <cc:Work
         rdf:about="">
        <dc:format>image/svg+xml</dc:format>
        <dc:type
           rdf:resource="http://purl.org/dc/dcmitype/StillImage" />
        <dc:title></dc:title>
      </cc:Work>
    </rdf:RDF>
  </metadata>
  <g
     transform="translate(-202.78347,-1548.61)"
     id="layer1">
    <g
       id="g5786"
       transform="matrix(0.00899999,0,0,0.00899999,-44.444521,1491.6437)">
      <g
         style="fill:#840000;fill-opacity:0;stroke:#840000;stroke-width:60;stroke-linecap:round;stroke-linejoin:round;stroke-opacity:1"
         id="g5584">
        <polyline
           fill="none;"
           points="28200,7500 28500,7000 "
           id="polyline5586" />
        <polyline
           fill="none;"
           points="28500,8000 28500,7000 "
           id="polyline5588" />
        <polyline
           fill="none;"
           points="28500,7000 28800,7500 "
           id="polyline5590" />
      </g>
      <g
         style="fill:#008484;fill-opacity:0;stroke:#008484;stroke-width:60;stroke-linecap:round;stroke-linejoin:round;stroke-opacity:1"
         id="g5592">
        <path
           d="m 27860,6670 380,0"
           id="path5594" />
        <path
           d="m 28050,6860 0,-380"
           id="path5596" />
        <path
           d="m 28720,6360 -240,0 -20,230 20,-20 50,-20 120,0 40,20 30,20 20,50 0,120 -20,50 -30,20 -40,30 -120,0 -50,-30 -20,-20"
           id="path5598" />
        <path
           d="m 28890,6360 160,500 170,-500"
           id="path5600" />
      </g>
      <g
         style="fill:#840000;fill-opacity:0;stroke:#840000;stroke-width:100;stroke-linecap:round;stroke-linejoin:round;stroke-opacity:1"
         id="g5606">
        <rect
           x="28100"
           y="25000"
           width="800"
           height="2000"
           rx="0"
           id="rect5608" />
      </g>
      <g
         style="fill:#840000;fill-opacity:0;stroke:#840000;stroke-width:60;stroke-linecap:round;stroke-linejoin:round;stroke-opacity:1"
         id="g5610">
        <path
           d="m 28500,25000 0,-500"
           id="path5612" />
        <path
           d="m 28500,27000 0,500"
           id="path5614" />
      </g>
      <g
         style="fill:#008484;fill-opacity:0;stroke:#008484;stroke-width:60;stroke-linecap:round;stroke-linejoin:round;stroke-opacity:1"
         id="g5616">
        <path
           d="m 29560,26090 -240,160"
           id="path5618" />
        <path
           d="m 29560,26370 -500,0 0,-190 20,-50 20,-20 50,-20 70,0 50,20 20,20 30,50 0,190"
           id="path5620" />
        <path
           d="m 29560,25610 0,280"
           id="path5622" />
        <path
           d="m 29560,25750 -500,0 70,50 50,50 20,40"
           id="path5624" />
        <path
           d="m 28300,26750 -20,-20 -20,-50 0,-120 20,-40 20,-30 50,-20 50,0 70,20 290,290 0,-310"
           id="path5626" />
        <path
           d="m 28710,26250 20,-20 30,20 -30,20 -20,-20 50,0"
           id="path5628" />
        <path
           d="m 28300,26030 -20,-20 -20,-50 0,-120 20,-40 20,-30 50,-20 50,0 70,20 290,290 0,-310"
           id="path5630" />
        <path
           d="m 28760,25530 -500,0"
           id="path5632" />
        <path
           d="m 28760,25250 -290,210"
           id="path5634" />
        <path
           d="m 28260,25250 280,280"
           id="path5636" />
      </g>
      <g
         style="fill:#840000;fill-opacity:0;stroke:#840000;stroke-width:60;stroke-linecap:round;stroke-linejoin:round;stroke-opacity:1"
         id="g5642">
        <polyline
           fill="none;"
           points="28500,29500 28500,30000 29000,30000 28500,30500 28000,30000 28500,30000 "
           id="polyline5644" />
      </g>
      <g
         style="fill:#008484;fill-opacity:0;stroke:#008484;stroke-width:60;stroke-linecap:round;stroke-linejoin:round;stroke-opacity:1"
         id="g5646">
        <path
           d="m 28120,30780 -50,-20 -70,0 -70,20 -50,50 -20,50 -20,90 0,70 20,100 20,40 50,50 70,30 50,0 70,-30 20,-20 0,-170 -90,0"
           id="path5648" />
        <path
           d="m 28360,31260 0,-500 280,500 0,-500"
           id="path5650" />
        <path
           d="m 28880,31260 0,-500 120,0 70,20 50,50 20,50 20,90 0,70 -20,100 -20,40 -50,50 -70,30 -120,0"
           id="path5652" />
      </g>
      <g
         style="fill:#840000;fill-opacity:0;stroke:#840000;stroke-width:60;stroke-linecap:round;stroke-linejoin:round;stroke-opacity:1"
         id="g5654">
        <path
           d="m 31800,22270 0,-600"
           id="path5656" />
        <path
           d="m 32090,22270 0,-600 350,600 0,-600"
           id="path5658" />
        <path
           d="m 32720,22270 0,-600 230,0 60,30 30,30 30,60 0,80 -30,60 -30,30 -60,30 -230,0"
           id="path5660" />
        <path
           d="m 33320,21670 0,490 30,50 30,30 60,30 110,0 60,-30 30,-30 30,-50 0,-490"
           id="path5662" />
        <path
           d="m 33870,21670 340,0"
           id="path5664" />
        <path
           d="m 34040,22270 0,-600"
           id="path5666" />
        <path
           d="m 34410,22040 460,0"
           id="path5668" />
        <path
           d="m 35150,22270 0,-600 230,0 60,30 30,30 30,60 0,80 -30,60 -30,30 -60,30 -230,0"
           id="path5670" />
        <path
           d="m 35750,22270 0,-600"
           id="path5672" />
        <path
           d="m 36040,22270 0,-600 350,600 0,-600"
           id="path5674" />
      </g>
      <g
         style="fill:#840000;fill-opacity:0;stroke:#840000;stroke-width:100;stroke-linecap:round;stroke-linejoin:round;stroke-opacity:1"
         id="g5676">
        <polyline
           fill="none;"
           points="31500,22000 31500,22540 36660,22540 36960,22000 36660,21460 31500,21460 31500,22000 "
           id="polyline5678" />
      </g>
      <g
         style="fill:#008400;fill-opacity:0;stroke:#008400;stroke-width:60;stroke-linecap:round;stroke-linejoin:round;stroke-opacity:1"
         id="g5682">
        <path
           d="m 28500,19500 0,2500"
           id="path5684" />
        <path
           d="m 28500,22000 0,2500"
           id="path5686" />
        <path
           d="m 28500,22000 3000,0"
           id="path5688" />
      </g>
      <g
         style="fill:#008400;fill-opacity:1;stroke:#008400;stroke-width:100;stroke-linecap:round;stroke-linejoin:round;stroke-opacity:1"
         id="g5692">
        <circle
           cx="28500"
           cy="22000"
           r="200"
           id="circle5694" />
      </g>
      <g
         style="fill:#008400;fill-opacity:0;stroke:#008400;stroke-width:60;stroke-linecap:round;stroke-linejoin:round;stroke-opacity:1"
         id="g5698">
        <path
           d="m 28500,27500 0,2000"
           id="path5700" />
      </g>
      <g
         style="fill:#840000;fill-opacity:0;stroke:#840000;stroke-width:60;stroke-linecap:round;stroke-linejoin:round;stroke-opacity:1"
         id="g5706">
        <circle
           cx="28500"
           cy="16000"
           r="500"
           id="circle5708" />
        <circle
           cx="28500"
           cy="13000"
           r="500"
           id="circle5710" />
        <polyline
           fill="none;"
           points="28500,15500 27500,13500 "
           id="polyline5712" />
        <path
           d="m 28500,16500 0,3000"
           id="path5714" />
      </g>
      <g
         style="fill:#008484;fill-opacity:0;stroke:#008484;stroke-width:60;stroke-linecap:round;stroke-linejoin:round;stroke-opacity:1"
         id="g5716">
        <path
           d="m 28380,17860 0,280"
           id="path5718" />
        <path
           d="m 28380,18000 -500,0 70,50 50,50 20,40"
           id="path5720" />
      </g>
      <g
         style="fill:#840000;fill-opacity:0;stroke:#840000;stroke-width:60;stroke-linecap:round;stroke-linejoin:round;stroke-opacity:1"
         id="g5722">
        <path
           d="m 28500,12500 0,-3000"
           id="path5724" />
      </g>
      <path
         style="fill:#008484;fill-opacity:0;stroke:#008484;stroke-width:60;stroke-linecap:round;stroke-linejoin:round;stroke-opacity:1"
         id="path5728"
         d="m 27920,11140 -20,-20 -20,-50 0,-120 20,-40 20,-30 50,-20 50,0 70,20 290,290 0,-310" />
      <path
         style="fill:#008484;fill-opacity:0;stroke:#008484;stroke-width:60;stroke-linecap:round;stroke-linejoin:round;stroke-opacity:1"
         id="path5738"
         d="m 29710,15530 20,20 30,70 0,50 -30,70 -50,50 -40,20 -100,20 -70,0 -90,-20 -50,-20 -50,-50 -20,-70 0,-50 20,-70 20,-20" />
      <path
         style="fill:#008484;fill-opacity:0;stroke:#008484;stroke-width:60;stroke-linecap:round;stroke-linejoin:round;stroke-opacity:1"
         id="path5740"
         d="m 29760,15240 -30,50 -20,20 -50,20 -140,0 -50,-20 -20,-20 -30,-50 0,-70 30,-50 20,-20 50,-30 140,0 50,30 20,20 30,50 0,70" />
      <path
         style="fill:#008484;fill-opacity:0;stroke:#008484;stroke-width:60;stroke-linecap:round;stroke-linejoin:round;stroke-opacity:1"
         id="path5742"
         d="m 29420,14860 340,0" />
      <path
         style="fill:#008484;fill-opacity:0;stroke:#008484;stroke-width:60;stroke-linecap:round;stroke-linejoin:round;stroke-opacity:1"
         id="path5744"
         d="m 29470,14860 -20,-20 -30,-50 0,-70 30,-50 40,-20 270,0" />
      <path
         style="fill:#008484;fill-opacity:0;stroke:#008484;stroke-width:60;stroke-linecap:round;stroke-linejoin:round;stroke-opacity:1"
         id="path5746"
         d="m 29420,14480 0,-190" />
      <path
         style="fill:#008484;fill-opacity:0;stroke:#008484;stroke-width:60;stroke-linecap:round;stroke-linejoin:round;stroke-opacity:1"
         id="path5748"
         d="m 29260,14410 420,0 50,-20 30,-50 0,-50" />
      <path
         style="fill:#008484;fill-opacity:0;stroke:#008484;stroke-width:60;stroke-linecap:round;stroke-linejoin:round;stroke-opacity:1"
         id="path5750"
         d="m 29760,13910 -270,0 -40,20 -30,50 0,90 30,50" />
      <path
         style="fill:#008484;fill-opacity:0;stroke:#008484;stroke-width:60;stroke-linecap:round;stroke-linejoin:round;stroke-opacity:1"
         id="path5752"
         d="m 29730,13910 30,40 0,120 -30,50 -50,20 -40,0 -50,-20 -20,-50 0,-120 -30,-40" />
      <path
         style="fill:#008484;fill-opacity:0;stroke:#008484;stroke-width:60;stroke-linecap:round;stroke-linejoin:round;stroke-opacity:1"
         id="path5754"
         d="m 29730,13460 30,40 0,100 -30,50 -20,20 -50,20 -140,0 -50,-20 -20,-20 -30,-50 0,-100 30,-40" />
      <path
         style="fill:#008484;fill-opacity:0;stroke:#008484;stroke-width:60;stroke-linecap:round;stroke-linejoin:round;stroke-opacity:1"
         id="path5756"
         d="m 29420,13310 0,-190" />
      <path
         style="fill:#008484;fill-opacity:0;stroke:#008484;stroke-width:60;stroke-linecap:round;stroke-linejoin:round;stroke-opacity:1"
         id="path5758"
         d="m 29260,13240 420,0 50,-20 30,-50 0,-50" />
      <g
         style="fill:#008400;fill-opacity:0;stroke:#008400;stroke-width:60;stroke-linecap:round;stroke-linejoin:round;stroke-opacity:1"
         id="g5760">
        <path
           d="m 28500,8000 0,1500"
           id="path5762" />
      </g>
    </g>
  </g>
</svg>
