<?xml version="1.0" encoding="UTF-8" standalone="no"?>
<!-- Created with Inkscape (http://www.inkscape.org/) -->

<svg
   xmlns:dc="http://purl.org/dc/elements/1.1/"
   xmlns:cc="http://creativecommons.org/ns#"
   xmlns:rdf="http://www.w3.org/1999/02/22-rdf-syntax-ns#"
   xmlns:svg="http://www.w3.org/2000/svg"
   xmlns="http://www.w3.org/2000/svg"
   xmlns:sodipodi="http://sodipodi.sourceforge.net/DTD/sodipodi-0.dtd"
   xmlns:inkscape="http://www.inkscape.org/namespaces/inkscape"
   width="21.03223mm"
   height="50.700462mm"
   viewBox="0 0 74.523651 179.64731"
   id="svg12711"
   version="1.1"
   inkscape:version="0.91 r13725"
   inkscape:export-filename="/home/sardylan/develop/ham/qcw/wiki/images/input-pin.png"
   inkscape:export-xdpi="300"
   inkscape:export-ydpi="300"
   sodipodi:docname="input-pin.svg">
  <defs
     id="defs12713" />
  <sodipodi:namedview
     id="base"
     pagecolor="#ffffff"
     bordercolor="#666666"
     borderopacity="1.0"
     inkscape:pageopacity="0.0"
     inkscape:pageshadow="2"
     inkscape:zoom="0.35"
     inkscape:cx="-458.45246"
     inkscape:cy="89.823653"
     inkscape:document-units="mm"
     inkscape:current-layer="layer1"
     showgrid="false"
     fit-margin-top="0"
     fit-margin-left="0"
     fit-margin-right="0"
     fit-margin-bottom="0"
     inkscape:window-width="1920"
     inkscape:window-height="1032"
     inkscape:window-x="0"
     inkscape:window-y="0"
     inkscape:window-maximized="1" />
  <metadata
     id="metadata12716">
    <rdf:RDF>
      <cc:Work
         rdf:about="">
        <dc:format>image/svg+xml</dc:format>
        <dc:type
           rdf:resource="http://purl.org/dc/dcmitype/StillImage" />
        <dc:title></dc:title>
      </cc:Work>
    </rdf:RDF>
  </metadata>
  <g
     inkscape:label="Layer 1"
     inkscape:groupmode="layer"
     id="layer1"
     transform="translate(-337.73817,-442.53855)">
    <g
       transform="matrix(0.00899999,0,0,0.00899999,92.672187,363.0723)"
       style="fill:#840000;fill-opacity:0;stroke:#840000;stroke-width:60;stroke-linecap:round;stroke-linejoin:round;stroke-opacity:1"
       id="g9072">
      <polyline
         fill="none;"
         points="28200,10000 28500,9500 "
         id="polyline9074" />
      <polyline
         fill="none;"
         points="28500,10500 28500,9500 "
         id="polyline9076" />
      <polyline
         fill="none;"
         points="28500,9500 28800,10000 "
         id="polyline9078" />
    </g>
    <g
       transform="matrix(0.00899999,0,0,0.00899999,92.672187,363.0723)"
       style="fill:#008484;fill-opacity:0;stroke:#008484;stroke-width:60;stroke-linecap:round;stroke-linejoin:round;stroke-opacity:1"
       id="g9080">
      <path
         inkscape:connector-curvature="0"
         d="m 27860,9170 380,0"
         id="path9082" />
      <path
         inkscape:connector-curvature="0"
         d="m 28050,9360 0,-380"
         id="path9084" />
      <path
         inkscape:connector-curvature="0"
         d="m 28720,8860 -240,0 -20,230 20,-20 50,-20 120,0 40,20 30,20 20,50 0,120 -20,50 -30,20 -40,30 -120,0 -50,-30 -20,-20"
         id="path9086" />
      <path
         inkscape:connector-curvature="0"
         d="m 28890,8860 160,500 170,-500"
         id="path9088" />
    </g>
    <g
       transform="matrix(0.00899999,0,0,0.00899999,92.672187,363.0723)"
       style="fill:#840000;fill-opacity:0;stroke:#840000;stroke-width:100;stroke-linecap:round;stroke-linejoin:round;stroke-opacity:1"
       id="g9094">
      <rect
         x="28100"
         y="23500"
         width="800"
         height="2000"
         rx="0"
         id="rect9096" />
    </g>
    <g
       transform="matrix(0.00899999,0,0,0.00899999,92.672187,363.0723)"
       style="fill:#840000;fill-opacity:0;stroke:#840000;stroke-width:60;stroke-linecap:round;stroke-linejoin:round;stroke-opacity:1"
       id="g9098">
      <path
         inkscape:connector-curvature="0"
         d="m 28500,23500 0,-500"
         id="path9100" />
      <path
         inkscape:connector-curvature="0"
         d="m 28500,25500 0,500"
         id="path9102" />
    </g>
    <g
       transform="matrix(0.00899999,0,0,0.00899999,92.672187,363.0723)"
       style="fill:#008484;fill-opacity:0;stroke:#008484;stroke-width:60;stroke-linecap:round;stroke-linejoin:round;stroke-opacity:1"
       id="g9104">
      <path
         inkscape:connector-curvature="0"
         d="m 29560,24590 -240,160"
         id="path9106" />
      <path
         inkscape:connector-curvature="0"
         d="m 29560,24870 -500,0 0,-190 20,-50 20,-20 50,-20 70,0 50,20 20,20 30,50 0,190"
         id="path9108" />
      <path
         inkscape:connector-curvature="0"
         d="m 29560,24110 0,280"
         id="path9110" />
      <path
         inkscape:connector-curvature="0"
         d="m 29560,24250 -500,0 70,50 50,50 20,40"
         id="path9112" />
      <path
         inkscape:connector-curvature="0"
         d="m 28300,25250 -20,-20 -20,-50 0,-120 20,-40 20,-30 50,-20 50,0 70,20 290,290 0,-310"
         id="path9114" />
      <path
         inkscape:connector-curvature="0"
         d="m 28710,24750 20,-20 30,20 -30,20 -20,-20 50,0"
         id="path9116" />
      <path
         inkscape:connector-curvature="0"
         d="m 28300,24530 -20,-20 -20,-50 0,-120 20,-40 20,-30 50,-20 50,0 70,20 290,290 0,-310"
         id="path9118" />
      <path
         inkscape:connector-curvature="0"
         d="m 28760,24030 -500,0"
         id="path9120" />
      <path
         inkscape:connector-curvature="0"
         d="m 28760,23750 -290,210"
         id="path9122" />
      <path
         inkscape:connector-curvature="0"
         d="m 28260,23750 280,280"
         id="path9124" />
    </g>
    <g
       transform="matrix(0.00899999,0,0,0.00899999,92.672187,363.0723)"
       style="fill:#840000;fill-opacity:0;stroke:#840000;stroke-width:60;stroke-linecap:round;stroke-linejoin:round;stroke-opacity:1"
       id="g9130">
      <polyline
         fill="none;"
         points="28500,27000 28500,27500 29000,27500 28500,28000 28000,27500 28500,27500 "
         id="polyline9132" />
    </g>
    <g
       transform="matrix(0.00899999,0,0,0.00899999,92.672187,363.0723)"
       style="fill:#008484;fill-opacity:0;stroke:#008484;stroke-width:60;stroke-linecap:round;stroke-linejoin:round;stroke-opacity:1"
       id="g9134">
      <path
         inkscape:connector-curvature="0"
         d="m 28120,28280 -50,-20 -70,0 -70,20 -50,50 -20,50 -20,90 0,70 20,100 20,40 50,50 70,30 50,0 70,-30 20,-20 0,-170 -90,0"
         id="path9136" />
      <path
         inkscape:connector-curvature="0"
         d="m 28360,28760 0,-500 280,500 0,-500"
         id="path9138" />
      <path
         inkscape:connector-curvature="0"
         d="m 28880,28760 0,-500 120,0 70,20 50,50 20,50 20,90 0,70 -20,100 -20,40 -50,50 -70,30 -120,0"
         id="path9140" />
    </g>
    <g
       transform="matrix(0.00899999,0,0,0.00899999,92.672187,363.0723)"
       style="fill:#840000;fill-opacity:0;stroke:#840000;stroke-width:60;stroke-linecap:round;stroke-linejoin:round;stroke-opacity:1"
       id="g9142">
      <path
         inkscape:connector-curvature="0"
         d="m 30300,22270 0,-600"
         id="path9144" />
      <path
         inkscape:connector-curvature="0"
         d="m 30590,22270 0,-600 350,600 0,-600"
         id="path9146" />
      <path
         inkscape:connector-curvature="0"
         d="m 31220,22270 0,-600 230,0 60,30 30,30 30,60 0,80 -30,60 -30,30 -60,30 -230,0"
         id="path9148" />
      <path
         inkscape:connector-curvature="0"
         d="m 31820,21670 0,490 30,50 30,30 60,30 110,0 60,-30 30,-30 30,-50 0,-490"
         id="path9150" />
      <path
         inkscape:connector-curvature="0"
         d="m 32370,21670 340,0"
         id="path9152" />
      <path
         inkscape:connector-curvature="0"
         d="m 32540,22270 0,-600"
         id="path9154" />
      <path
         inkscape:connector-curvature="0"
         d="m 32910,22040 460,0"
         id="path9156" />
      <path
         inkscape:connector-curvature="0"
         d="m 33650,22270 0,-600 230,0 60,30 30,30 30,60 0,80 -30,60 -30,30 -60,30 -230,0"
         id="path9158" />
      <path
         inkscape:connector-curvature="0"
         d="m 34250,22270 0,-600"
         id="path9160" />
      <path
         inkscape:connector-curvature="0"
         d="m 34540,22270 0,-600 350,600 0,-600"
         id="path9162" />
    </g>
    <g
       transform="matrix(0.00899999,0,0,0.00899999,92.672187,363.0723)"
       style="fill:#840000;fill-opacity:0;stroke:#840000;stroke-width:100;stroke-linecap:round;stroke-linejoin:round;stroke-opacity:1"
       id="g9164">
      <polyline
         fill="none;"
         points="30000,22000 30000,22540 35160,22540 35460,22000 35160,21460 30000,21460 30000,22000 "
         id="polyline9166" />
    </g>
    <g
       transform="matrix(0.00899999,0,0,0.00899999,92.672187,363.0723)"
       style="fill:#008400;fill-opacity:0;stroke:#008400;stroke-width:60;stroke-linecap:round;stroke-linejoin:round;stroke-opacity:1"
       id="g9170">
      <path
         inkscape:connector-curvature="0"
         d="m 28500,21500 0,1500"
         id="path9172" />
      <path
         inkscape:connector-curvature="0"
         d="m 28500,22000 1500,0"
         id="path9174" />
    </g>
    <g
       transform="matrix(0.00899999,0,0,0.00899999,92.672187,363.0723)"
       style="fill:#008400;fill-opacity:1;stroke:#008400;stroke-width:100;stroke-linecap:round;stroke-linejoin:round;stroke-opacity:1"
       id="g9178">
      <circle
         cx="28500"
         cy="22000"
         r="200"
         id="circle9180" />
    </g>
    <g
       transform="matrix(0.00899999,0,0,0.00899999,92.672187,363.0723)"
       style="fill:#008400;fill-opacity:0;stroke:#008400;stroke-width:60;stroke-linecap:round;stroke-linejoin:round;stroke-opacity:1"
       id="g9184">
      <path
         inkscape:connector-curvature="0"
         d="m 28500,26000 0,1000"
         id="path9186" />
    </g>
    <g
       transform="matrix(0.00899999,0,0,0.00899999,92.672187,363.0723)"
       style="fill:#840000;fill-opacity:0;stroke:#840000;stroke-width:60;stroke-linecap:round;stroke-linejoin:round;stroke-opacity:1"
       id="g9192">
      <circle
         cx="28500"
         cy="18000"
         r="500"
         id="circle9194" />
      <circle
         cx="28500"
         cy="15000"
         r="500"
         id="circle9196" />
      <polyline
         fill="none;"
         points="28500,17500 27500,15500 "
         id="polyline9198" />
      <path
         inkscape:connector-curvature="0"
         d="m 28500,18500 0,3000"
         id="path9200" />
    </g>
    <g
       transform="matrix(0.00899999,0,0,0.00899999,92.672187,363.0723)"
       style="fill:#008484;fill-opacity:0;stroke:#008484;stroke-width:60;stroke-linecap:round;stroke-linejoin:round;stroke-opacity:1"
       id="g9202">
      <path
         inkscape:connector-curvature="0"
         d="m 28380,19860 0,280"
         id="path9204" />
      <path
         inkscape:connector-curvature="0"
         d="m 28380,20000 -500,0 70,50 50,50 20,40"
         id="path9206" />
    </g>
    <g
       transform="matrix(0.00899999,0,0,0.00899999,92.672187,363.0723)"
       style="fill:#840000;fill-opacity:0;stroke:#840000;stroke-width:60;stroke-linecap:round;stroke-linejoin:round;stroke-opacity:1"
       id="g9208">
      <path
         inkscape:connector-curvature="0"
         d="m 28500,14500 0,-3000"
         id="path9210" />
    </g>
    <g
       transform="matrix(0.00899999,0,0,0.00899999,92.672187,363.0723)"
       style="fill:#008484;fill-opacity:0;stroke:#008484;stroke-width:60;stroke-linecap:round;stroke-linejoin:round;stroke-opacity:1"
       id="g9212">
      <path
         inkscape:connector-curvature="0"
         d="m 27920,13140 -20,-20 -20,-50 0,-120 20,-40 20,-30 50,-20 50,0 70,20 290,290 0,-310"
         id="path9214" />
      <path
         inkscape:connector-curvature="0"
         d="m 27730,17150 30,-70 0,-120 -30,-40 -20,-30 -50,-20 -50,0 -40,20 -30,30 -20,40 -30,100 -20,50 -20,20 -50,20 -50,0 -50,-20 -20,-20 -20,-50 0,-120 20,-70"
         id="path9216" />
      <path
         inkscape:connector-curvature="0"
         d="m 27260,16700 500,-120 -360,-100 360,-90 -500,-120"
         id="path9218" />
      <path
         inkscape:connector-curvature="0"
         d="m 27760,15820 0,280"
         id="path9220" />
      <path
         inkscape:connector-curvature="0"
         d="m 27760,15960 -500,0 70,50 50,50 20,40"
         id="path9222" />
      <path
         inkscape:connector-curvature="0"
         d="m 29710,17530 20,20 30,70 0,50 -30,70 -50,50 -40,20 -100,20 -70,0 -90,-20 -50,-20 -50,-50 -20,-70 0,-50 20,-70 20,-20"
         id="path9224" />
      <path
         inkscape:connector-curvature="0"
         d="m 29760,17240 -30,50 -20,20 -50,20 -140,0 -50,-20 -20,-20 -30,-50 0,-70 30,-50 20,-20 50,-30 140,0 50,30 20,20 30,50 0,70"
         id="path9226" />
      <path
         inkscape:connector-curvature="0"
         d="m 29420,16860 340,0"
         id="path9228" />
      <path
         inkscape:connector-curvature="0"
         d="m 29470,16860 -20,-20 -30,-50 0,-70 30,-50 40,-20 270,0"
         id="path9230" />
      <path
         inkscape:connector-curvature="0"
         d="m 29420,16480 0,-190"
         id="path9232" />
      <path
         inkscape:connector-curvature="0"
         d="m 29260,16410 420,0 50,-20 30,-50 0,-50"
         id="path9234" />
      <path
         inkscape:connector-curvature="0"
         d="m 29760,15910 -270,0 -40,20 -30,50 0,90 30,50"
         id="path9236" />
      <path
         inkscape:connector-curvature="0"
         d="m 29730,15910 30,40 0,120 -30,50 -50,20 -40,0 -50,-20 -20,-50 0,-120 -30,-40"
         id="path9238" />
      <path
         inkscape:connector-curvature="0"
         d="m 29730,15460 30,40 0,100 -30,50 -20,20 -50,20 -140,0 -50,-20 -20,-20 -30,-50 0,-100 30,-40"
         id="path9240" />
      <path
         inkscape:connector-curvature="0"
         d="m 29420,15310 0,-190"
         id="path9242" />
      <path
         inkscape:connector-curvature="0"
         d="m 29260,15240 420,0 50,-20 30,-50 0,-50"
         id="path9244" />
    </g>
    <g
       transform="matrix(0.00899999,0,0,0.00899999,92.672187,363.0723)"
       style="fill:#008400;fill-opacity:0;stroke:#008400;stroke-width:60;stroke-linecap:round;stroke-linejoin:round;stroke-opacity:1"
       id="g9246">
      <path
         inkscape:connector-curvature="0"
         d="m 28500,10500 0,1000"
         id="path9248" />
    </g>
  </g>
</svg>
