<?xml version="1.0" encoding="UTF-8" standalone="no"?>
<!-- Created with Inkscape (http://www.inkscape.org/) -->

<svg
   xmlns:dc="http://purl.org/dc/elements/1.1/"
   xmlns:cc="http://creativecommons.org/ns#"
   xmlns:rdf="http://www.w3.org/1999/02/22-rdf-syntax-ns#"
   xmlns:svg="http://www.w3.org/2000/svg"
   xmlns="http://www.w3.org/2000/svg"
   xmlns:sodipodi="http://sodipodi.sourceforge.net/DTD/sodipodi-0.dtd"
   xmlns:inkscape="http://www.inkscape.org/namespaces/inkscape"
   width="50.393543mm"
   height="18.593853mm"
   viewBox="0 0 178.5598 65.883731"
   id="svg11107"
   version="1.1"
   inkscape:version="0.91 r13725"
   inkscape:export-filename="/home/sardylan/develop/ham/qcw/wiki/images/output-speaker.png"
   inkscape:export-xdpi="300"
   inkscape:export-ydpi="300"
   sodipodi:docname="output-speaker.svg">
  <defs
     id="defs11109" />
  <sodipodi:namedview
     id="base"
     pagecolor="#ffffff"
     bordercolor="#666666"
     borderopacity="1.0"
     inkscape:pageopacity="0.0"
     inkscape:pageshadow="2"
     inkscape:zoom="0.35"
     inkscape:cx="-406.43438"
     inkscape:cy="32.941868"
     inkscape:document-units="mm"
     inkscape:current-layer="layer1"
     showgrid="false"
     fit-margin-top="0"
     fit-margin-left="0"
     fit-margin-right="0"
     fit-margin-bottom="0"
     inkscape:window-width="1920"
     inkscape:window-height="1032"
     inkscape:window-x="0"
     inkscape:window-y="0"
     inkscape:window-maximized="1" />
  <metadata
     id="metadata11112">
    <rdf:RDF>
      <cc:Work
         rdf:about="">
        <dc:format>image/svg+xml</dc:format>
        <dc:type
           rdf:resource="http://purl.org/dc/dcmitype/StillImage" />
        <dc:title></dc:title>
      </cc:Work>
    </rdf:RDF>
  </metadata>
  <g
     inkscape:label="Layer 1"
     inkscape:groupmode="layer"
     id="layer1"
     transform="translate(-285.7201,-499.42034)">
    <g
       transform="matrix(0.00899999,0,0,0.00899999,90.510316,202.69063)"
       style="fill:#840000;fill-opacity:0;stroke:#840000;stroke-width:60;stroke-linecap:round;stroke-linejoin:round;stroke-opacity:1"
       id="g9390">
      <polyline
         fill="none;"
         points="40000,34500 41500,33000 41500,39000 40000,37500 "
         id="polyline9392" />
    </g>
    <g
       transform="matrix(0.00899999,0,0,0.00899999,90.510316,202.69063)"
       style="fill:#840000;fill-opacity:1;stroke:#840000;stroke-width:60;stroke-linecap:round;stroke-linejoin:round;stroke-opacity:1"
       id="g9394">
      <polyline
         style="fill-rule:evenodd"
         points="38000,34500 40000,34500 40000,37500 38000,37500 38000,34500 "
         id="polyline9396" />
    </g>
    <g
       transform="matrix(0.00899999,0,0,0.00899999,90.510316,202.69063)"
       style="fill:#840000;fill-opacity:0;stroke:#840000;stroke-width:60;stroke-linecap:round;stroke-linejoin:round;stroke-opacity:1"
       id="g9398">
      <path
         inkscape:connector-curvature="0"
         d="m 38000,35000 -2000,0"
         id="path9400" />
    </g>
    <g
       transform="matrix(0.00899999,0,0,0.00899999,90.510316,202.69063)"
       style="fill:#008484;fill-opacity:0;stroke:#008484;stroke-width:60;stroke-linecap:round;stroke-linejoin:round;stroke-opacity:1"
       id="g9402">
      <path
         inkscape:connector-curvature="0"
         d="m 37110,34880 -220,0"
         id="path9404" />
      <path
         inkscape:connector-curvature="0"
         d="m 37000,34880 0,-400 -40,60 -40,40 -30,20"
         id="path9406" />
    </g>
    <g
       transform="matrix(0.00899999,0,0,0.00899999,90.510316,202.69063)"
       style="fill:#840000;fill-opacity:0;stroke:#840000;stroke-width:60;stroke-linecap:round;stroke-linejoin:round;stroke-opacity:1"
       id="g9408">
      <path
         inkscape:connector-curvature="0"
         d="m 38000,37000 -2000,0"
         id="path9410" />
    </g>
    <g
       transform="matrix(0.00899999,0,0,0.00899999,90.510316,202.69063)"
       style="fill:#008484;fill-opacity:0;stroke:#008484;stroke-width:60;stroke-linecap:round;stroke-linejoin:round;stroke-opacity:1"
       id="g9412">
      <path
         inkscape:connector-curvature="0"
         d="m 36890,36520 20,-20 30,-20 100,0 40,20 20,20 10,40 0,40 -10,50 -230,230 240,0"
         id="path9414" />
      <path
         inkscape:connector-curvature="0"
         d="m 36450,38730 70,30 120,0 40,-30 30,-20 20,-50 0,-50 -20,-40 -30,-30 -40,-20 -100,-30 -50,-20 -20,-20 -20,-50 0,-50 20,-50 20,-20 50,-20 120,0 70,20"
         id="path9416" />
      <path
         inkscape:connector-curvature="0"
         d="m 36950,38760 0,-500 190,0 50,20 20,20 20,50 0,70 -20,50 -20,20 -50,30 -190,0"
         id="path9418" />
      <path
         inkscape:connector-curvature="0"
         d="m 37450,38490 170,0"
         id="path9420" />
      <path
         inkscape:connector-curvature="0"
         d="m 37690,38760 -240,0 0,-500 240,0"
         id="path9422" />
      <path
         inkscape:connector-curvature="0"
         d="m 37880,38610 230,0"
         id="path9424" />
      <path
         inkscape:connector-curvature="0"
         d="m 37830,38760 160,-500 170,500"
         id="path9426" />
      <path
         inkscape:connector-curvature="0"
         d="m 38330,38760 0,-500"
         id="path9428" />
      <path
         inkscape:connector-curvature="0"
         d="m 38610,38760 -210,-290"
         id="path9430" />
      <path
         inkscape:connector-curvature="0"
         d="m 38610,38260 -280,280"
         id="path9432" />
      <path
         inkscape:connector-curvature="0"
         d="m 38830,38490 170,0"
         id="path9434" />
      <path
         inkscape:connector-curvature="0"
         d="m 39070,38760 -240,0 0,-500 240,0"
         id="path9436" />
      <path
         inkscape:connector-curvature="0"
         d="m 39560,38760 -160,-240"
         id="path9438" />
      <path
         inkscape:connector-curvature="0"
         d="m 39280,38760 0,-500 190,0 50,20 20,20 20,50 0,70 -20,50 -20,20 -50,30 -190,0"
         id="path9440" />
    </g>
    <g
       transform="matrix(0.00899999,0,0,0.00899999,90.510316,202.69063)"
       style="fill:#840000;fill-opacity:0;stroke:#840000;stroke-width:100;stroke-linecap:round;stroke-linejoin:round;stroke-opacity:1"
       id="g9446">
      <rect
         x="31000"
         y="34600"
         width="2000"
         height="800"
         rx="0"
         id="rect9448" />
    </g>
    <g
       transform="matrix(0.00899999,0,0,0.00899999,90.510316,202.69063)"
       style="fill:#840000;fill-opacity:0;stroke:#840000;stroke-width:60;stroke-linecap:round;stroke-linejoin:round;stroke-opacity:1"
       id="g9450">
      <path
         inkscape:connector-curvature="0"
         d="m 33000,35000 500,0"
         id="path9452" />
      <path
         inkscape:connector-curvature="0"
         d="m 31000,35000 -500,0"
         id="path9454" />
    </g>
    <g
       transform="matrix(0.00899999,0,0,0.00899999,90.510316,202.69063)"
       style="fill:#008484;fill-opacity:0;stroke:#008484;stroke-width:60;stroke-linecap:round;stroke-linejoin:round;stroke-opacity:1"
       id="g9456">
      <path
         inkscape:connector-curvature="0"
         d="m 31660,35260 -280,0"
         id="path9458" />
      <path
         inkscape:connector-curvature="0"
         d="m 31520,35260 0,-500 -50,70 -50,50 -40,20"
         id="path9460" />
      <path
         inkscape:connector-curvature="0"
         d="m 31970,34760 50,0 50,20 20,20 30,50 20,100 0,120 -20,90 -30,50 -20,20 -50,30 -50,0 -40,-30 -30,-20 -20,-50 -20,-90 0,-120 20,-100 20,-50 30,-20 40,-20"
         id="path9462" />
      <path
         inkscape:connector-curvature="0"
         d="m 32450,34760 50,0 50,20 20,20 30,50 20,100 0,120 -20,90 -30,50 -20,20 -50,30 -50,0 -40,-30 -30,-20 -20,-50 -20,-90 0,-120 20,-100 20,-50 30,-20 40,-20"
         id="path9464" />
    </g>
    <g
       transform="matrix(0.00899999,0,0,0.00899999,90.510316,202.69063)"
       style="fill:#840000;fill-opacity:0;stroke:#840000;stroke-width:60;stroke-linecap:round;stroke-linejoin:round;stroke-opacity:1"
       id="g9466">
      <path
         inkscape:connector-curvature="0"
         d="m 22230,34670 110,0 60,30 60,60 20,110 0,200 -20,120 -60,50 -60,30 -110,0 -60,-30 -60,-50 -30,-120 0,-200 30,-110 60,-60 60,-30"
         id="path9468" />
      <path
         inkscape:connector-curvature="0"
         d="m 22740,34670 0,490 30,50 30,30 60,30 110,0 60,-30 30,-30 30,-50 0,-490"
         id="path9470" />
      <path
         inkscape:connector-curvature="0"
         d="m 23290,34670 340,0"
         id="path9472" />
      <path
         inkscape:connector-curvature="0"
         d="m 23460,35270 0,-600"
         id="path9474" />
      <path
         inkscape:connector-curvature="0"
         d="m 23830,35270 0,-600 230,0 60,30 30,30 30,60 0,80 -30,60 -30,30 -60,30 -230,0"
         id="path9476" />
      <path
         inkscape:connector-curvature="0"
         d="m 24430,34670 0,490 30,50 30,30 60,30 110,0 60,-30 30,-30 30,-50 0,-490"
         id="path9478" />
      <path
         inkscape:connector-curvature="0"
         d="m 24980,34670 340,0"
         id="path9480" />
      <path
         inkscape:connector-curvature="0"
         d="m 25150,35270 0,-600"
         id="path9482" />
      <path
         inkscape:connector-curvature="0"
         d="m 25520,35040 460,0"
         id="path9484" />
      <path
         inkscape:connector-curvature="0"
         d="m 26260,35270 0,-600 230,0 60,30 30,30 30,60 0,80 -30,60 -30,30 -60,30 -230,0"
         id="path9486" />
      <path
         inkscape:connector-curvature="0"
         d="m 26860,35270 0,-600"
         id="path9488" />
      <path
         inkscape:connector-curvature="0"
         d="m 27150,35270 0,-600 350,600 0,-600"
         id="path9490" />
    </g>
    <g
       transform="matrix(0.00899999,0,0,0.00899999,90.510316,202.69063)"
       style="fill:#840000;fill-opacity:0;stroke:#840000;stroke-width:100;stroke-linecap:round;stroke-linejoin:round;stroke-opacity:1"
       id="g9492">
      <polyline
         fill="none;"
         points="28000,35000 27700,34460 21740,34460 21740,35000 21740,35540 27700,35540 28000,35000 "
         id="polyline9494" />
    </g>
    <g
       transform="matrix(0.00899999,0,0,0.00899999,90.510316,202.69063)"
       style="fill:#840000;fill-opacity:0;stroke:#840000;stroke-width:60;stroke-linecap:round;stroke-linejoin:round;stroke-opacity:1"
       id="g9498">
      <polyline
         fill="none;"
         points="33500,38500 33500,39000 34000,39000 33500,39500 33000,39000 33500,39000 "
         id="polyline9500" />
    </g>
    <g
       transform="matrix(0.00899999,0,0,0.00899999,90.510316,202.69063)"
       style="fill:#008484;fill-opacity:0;stroke:#008484;stroke-width:60;stroke-linecap:round;stroke-linejoin:round;stroke-opacity:1"
       id="g9502">
      <path
         inkscape:connector-curvature="0"
         d="m 33120,39780 -50,-20 -70,0 -70,20 -50,50 -20,50 -20,90 0,70 20,100 20,40 50,50 70,30 50,0 70,-30 20,-20 0,-170 -90,0"
         id="path9504" />
      <path
         inkscape:connector-curvature="0"
         d="m 33360,40260 0,-500 280,500 0,-500"
         id="path9506" />
      <path
         inkscape:connector-curvature="0"
         d="m 33880,40260 0,-500 120,0 70,20 50,50 20,50 20,90 0,70 -20,100 -20,40 -50,50 -70,30 -120,0"
         id="path9508" />
    </g>
    <g
       transform="matrix(0.00899999,0,0,0.00899999,90.510316,202.69063)"
       style="fill:#008400;fill-opacity:0;stroke:#008400;stroke-width:60;stroke-linecap:round;stroke-linejoin:round;stroke-opacity:1"
       id="g9510">
      <path
         inkscape:connector-curvature="0"
         d="m 33500,38500 0,-1500"
         id="path9512" />
      <path
         inkscape:connector-curvature="0"
         d="m 33500,37000 2500,0"
         id="path9514" />
      <path
         inkscape:connector-curvature="0"
         d="m 36000,35000 -2500,0"
         id="path9516" />
      <path
         inkscape:connector-curvature="0"
         d="m 30500,35000 -2500,0"
         id="path9518" />
    </g>
  </g>
</svg>
